<?xml version="1.0" encoding="UTF-8" standalone="no"?>
<!-- Created with Inkscape (http://www.inkscape.org/) -->

<svg
   xmlns:dc="http://purl.org/dc/elements/1.1/"
   xmlns:cc="http://creativecommons.org/ns#"
   xmlns:rdf="http://www.w3.org/1999/02/22-rdf-syntax-ns#"
   xmlns:svg="http://www.w3.org/2000/svg"
   xmlns="http://www.w3.org/2000/svg"
   xmlns:xlink="http://www.w3.org/1999/xlink"
   xmlns:sodipodi="http://sodipodi.sourceforge.net/DTD/sodipodi-0.dtd"
   xmlns:inkscape="http://www.inkscape.org/namespaces/inkscape"
   width="51.659988"
   height="47.999989"
   id="svg2"
   version="1.1"
   inkscape:version="0.48.4 r9939"
   sodipodi:docname="WS-en-tête.svg">
  <defs
     id="defs4">
    <linearGradient
       id="linearGradient3814">
      <stop
         style="stop-color:#7a7a7a;stop-opacity:1;"
         offset="0"
         id="stop3816" />
      <stop
         style="stop-color:#4d4d4d;stop-opacity:1;"
         offset="1"
         id="stop3818" />
    </linearGradient>
    <linearGradient
       inkscape:collect="always"
       xlink:href="#linearGradient3814"
       id="linearGradient3820"
       x1="2.1381645"
       y1="1002.3622"
       x2="97.861832"
       y2="1002.3622"
       gradientUnits="userSpaceOnUse" />
    <linearGradient
       inkscape:collect="always"
       xlink:href="#linearGradient3814"
       id="linearGradient3828"
       gradientUnits="userSpaceOnUse"
       x1="2.1381645"
       y1="1002.3622"
       x2="97.861832"
       y2="1002.3622" />
    <linearGradient
       inkscape:collect="always"
       xlink:href="#linearGradient3814"
       id="linearGradient3830"
       gradientUnits="userSpaceOnUse"
       x1="2.1381645"
       y1="1002.3622"
       x2="97.861832"
       y2="1002.3622" />
    <linearGradient
       inkscape:collect="always"
       xlink:href="#linearGradient3814"
       id="linearGradient3832"
       gradientUnits="userSpaceOnUse"
       x1="2.1381645"
       y1="1002.3622"
       x2="97.861832"
       y2="1002.3622" />
    <linearGradient
       inkscape:collect="always"
       xlink:href="#linearGradient3814"
       id="linearGradient3835"
       gradientUnits="userSpaceOnUse"
       x1="2.1381645"
       y1="1002.3622"
       x2="97.861832"
       y2="1002.3622"
       gradientTransform="matrix(1.0956565,0,0,1.0956565,-0.97312325,-95.882465)" />
    <linearGradient
       inkscape:collect="always"
       xlink:href="#linearGradient3814"
       id="linearGradient3838"
       gradientUnits="userSpaceOnUse"
       x1="2.1381645"
       y1="1002.3622"
       x2="97.861832"
       y2="1002.3622"
       gradientTransform="matrix(1.0956565,0,0,1.0956565,-0.97312325,-91.338108)" />
    <linearGradient
       inkscape:collect="always"
       xlink:href="#linearGradient3814"
       id="linearGradient3841"
       gradientUnits="userSpaceOnUse"
       x1="2.1381645"
       y1="1002.3622"
       x2="97.861832"
       y2="1002.3622"
       gradientTransform="matrix(1.0956565,0,0,1.0956565,-0.97312325,-95.882465)" />
    <linearGradient
       inkscape:collect="always"
       xlink:href="#linearGradient3814"
       id="linearGradient3000"
       gradientUnits="userSpaceOnUse"
       gradientTransform="matrix(1.0956565,0,0,1.0956565,-0.97312325,-95.882465)"
       x1="2.1381645"
       y1="1002.3622"
       x2="97.861832"
       y2="1002.3622" />
    <linearGradient
       inkscape:collect="always"
       xlink:href="#linearGradient3814"
       id="linearGradient3002"
       gradientUnits="userSpaceOnUse"
       gradientTransform="matrix(1.0956565,0,0,1.0956565,-0.97312325,-91.338108)"
       x1="2.1381645"
       y1="1002.3622"
       x2="97.861832"
       y2="1002.3622" />
    <linearGradient
       inkscape:collect="always"
       xlink:href="#linearGradient3814"
       id="linearGradient3004"
       gradientUnits="userSpaceOnUse"
       gradientTransform="matrix(1.0956565,0,0,1.0956565,-0.97312325,-95.882465)"
       x1="2.1381645"
       y1="1002.3622"
       x2="97.861832"
       y2="1002.3622" />
  </defs>
  <sodipodi:namedview
     id="base"
     pagecolor="#ffffff"
     bordercolor="#666666"
     borderopacity="1.0"
     inkscape:pageopacity="0.0"
     inkscape:pageshadow="2"
     inkscape:zoom="1.4"
     inkscape:cx="159.00263"
     inkscape:cy="41.743921"
     inkscape:document-units="px"
     inkscape:current-layer="layer1"
     showgrid="false"
     fit-margin-top="0"
     fit-margin-left="0"
     fit-margin-right="0"
     fit-margin-bottom="0"
     inkscape:window-width="1366"
     inkscape:window-height="691"
     inkscape:window-x="0"
     inkscape:window-y="24"
     inkscape:window-maximized="1"
     borderlayer="true" />
  <metadata
     id="metadata7">
    <rdf:RDF>
      <cc:Work
         rdf:about="">
        <dc:format>image/svg+xml</dc:format>
        <dc:type
           rdf:resource="http://purl.org/dc/dcmitype/StillImage" />
        <dc:title />
      </cc:Work>
    </rdf:RDF>
  </metadata>
  <g
     inkscape:label="Calque 1"
     inkscape:groupmode="layer"
     id="layer1"
     transform="translate(0,-1004.3683)">
    <g
       id="g2995"
       transform="matrix(0.4799999,0,0,0.4799999,0,547.22844)">
      <path
         d="m 1.3695706,1050.9926 0,-97.26088 24.4489764,0 0,4.6009 -4.761398,0 c -1.212671,8e-5 -2.371812,0.0893 -3.477427,0.2675 -1.070002,0.1784 -2.015147,0.55289 -2.835438,1.12347 -0.82034,0.53507 -1.462326,1.31971 -1.925959,2.35394 -0.463679,1.03439 -0.695507,2.40753 -0.695485,4.11942 l 0,72.33045 c -2.2e-5,1.712 0.231806,3.085 0.695485,4.1195 0.463633,1.0343 1.105619,1.8189 1.925959,2.3539 0.820291,0.5706 1.765436,0.9451 2.835438,1.1234 1.105615,0.1783 2.264756,0.2675 3.477427,0.2675 l 4.761398,0 0,4.6009 -24.4489764,0"
         style="font-size:100px;font-style:normal;font-variant:normal;font-weight:normal;font-stretch:normal;text-align:start;line-height:125%;letter-spacing:-0.02px;word-spacing:0px;writing-mode:lr-tb;text-anchor:start;fill:url(#linearGradient3000);fill-opacity:1;stroke:#000000;stroke-width:2.73914123;stroke-miterlimit:4;stroke-opacity:1;stroke-dasharray:none;font-family:Droid Serif;-inkscape-font-specification:Droid Serif"
         id="path3029"
         inkscape:connector-curvature="0" />
      <path
         d="m 57.046383,1005.5691 0,20.276 -6.58036,0 0,-20.276 -20.169067,0 0,-6.47339 20.169067,0 0,-20.22257 6.58036,0 0,20.22257 20.276065,0 0,6.47339 -20.276065,0"
         style="font-size:100px;font-style:normal;font-variant:normal;font-weight:normal;font-stretch:normal;text-align:start;line-height:125%;letter-spacing:-0.02px;word-spacing:0px;writing-mode:lr-tb;text-anchor:start;fill:url(#linearGradient3002);fill-opacity:1;stroke:#000000;stroke-width:2.73914123;stroke-miterlimit:4;stroke-opacity:1;stroke-dasharray:none;font-family:Droid Serif;-inkscape-font-specification:Droid Serif"
         id="path3031"
         inkscape:connector-curvature="0" />
      <path
         d="m 81.854356,1050.9926 0,-4.6009 4.707899,0 c 1.248296,0 2.407437,-0.089 3.477426,-0.2675 1.105629,-0.1783 2.050774,-0.5528 2.835439,-1.1234 0.8203,-0.535 1.462286,-1.3196 1.925959,-2.3539 0.499305,-1.0345 0.748965,-2.4075 0.748983,-4.1195 l 0,-72.33045 c -1.8e-5,-1.71189 -0.249678,-3.08503 -0.748983,-4.11942 -0.463673,-1.03423 -1.105659,-1.81887 -1.925959,-2.35394 -0.784665,-0.57058 -1.72981,-0.94507 -2.835439,-1.12347 -1.069989,-0.17825 -2.22913,-0.26742 -3.477426,-0.2675 l -4.707899,0 0,-4.6009 24.395474,0 0,97.26088 -24.395474,0"
         style="font-size:100px;font-style:normal;font-variant:normal;font-weight:normal;font-stretch:normal;text-align:start;line-height:125%;letter-spacing:-0.02px;word-spacing:0px;writing-mode:lr-tb;text-anchor:start;fill:url(#linearGradient3004);fill-opacity:1;stroke:#000000;stroke-width:2.73914123;stroke-miterlimit:4;stroke-opacity:1;stroke-dasharray:none;font-family:Droid Serif;-inkscape-font-specification:Droid Serif"
         id="path3033"
         inkscape:connector-curvature="0" />
    </g>
  </g>
</svg>
