<?xml version="1.0" encoding="UTF-8"?>
<svg xmlns="http://www.w3.org/2000/svg" viewBox="0 0 20 20" height="20" width="20">
    <title>
        zoom reset
    </title>
    <path d="M19 17l-5.15-5.15a7 7 0 1 0-2 2L17 19zM3.5 8A4.5 4.5 0 1 1 8 12.5 4.5 4.5 0 0 1 3.5 8z"/>
    <path d="M8.004 11c1.172 0 1.953-1.031 1.953-3.023C9.957 5.984 9.176 5 8.004 5c-1.18 0-1.961.977-1.961 2.977 0 1.992.781 3.023 1.96 3.023zm0-.898c-.5 0-.875-.5-.875-2.125 0-1.618.375-2.086.875-2.086.492 0 .867.468.867 2.086 0 1.625-.375 2.125-.867 2.125z"/>
</svg>
